<svg width="1200" height="300" viewBox="0 0 1200 300" fill="none" xmlns="http://www.w3.org/2000/svg">
<defs>
  <linearGradient id="bg" x1="0" y1="0" x2="1200" y2="300" gradientUnits="userSpaceOnUse">
    <stop stop-color="#07141A"/>
    <stop offset="0.55" stop-color="#080A12"/>
    <stop offset="1" stop-color="#111025"/>
  </linearGradient>
  <linearGradient id="accent" x1="120" y1="120" x2="760" y2="190" gradientUnits="userSpaceOnUse">
    <stop stop-color="#6CE7FF"/>
    <stop offset="1" stop-color="#A88CFF"/>
  </linearGradient>
  <filter id="glow" x="-50%" y="-50%" width="200%" height="200%">
    <feGaussianBlur stdDeviation="18" result="blur"/>
  </filter>
  <pattern id="grid" width="48" height="48" patternUnits="userSpaceOnUse">
    <path d="M48 0H0V48" stroke="white" stroke-opacity=".055"/>
  </pattern>
</defs>
<rect width="1200" height="300" rx="28" fill="url(#bg)"/>
<rect x="1" y="1" width="1198" height="298" rx="27" stroke="white" stroke-opacity=".10"/>
<rect width="1200" height="300" rx="28" fill="url(#grid)"/>
<circle cx="980" cy="76" r="105" fill="#6CE7FF" fill-opacity=".07" filter="url(#glow)"/>
<circle cx="1085" cy="220" r="125" fill="#A88CFF" fill-opacity=".06" filter="url(#glow)"/>
<circle cx="1010" cy="64" r="4" fill="#6CE7FF"/>
<circle cx="1100" cy="230" r="4" fill="#A88CFF"/>
<path d="M0 258C220 220 355 300 560 254C760 210 900 264 1200 206" stroke="url(#accent)" stroke-opacity=".16"/>
<text x="74" y="104" fill="#6CE7FF" font-family="Inter,Segoe UI,Arial,sans-serif" font-size="13" font-weight="700" letter-spacing="3">ESWAR SURYA</text>
<text x="74" y="156" fill="#F5F7FB" font-family="Inter,Segoe UI,Arial,sans-serif" font-size="39" font-weight="800">Data Analytics • BI • Data Engineering</text>
<text x="74" y="190" fill="#AEB9C9" font-family="Inter,Segoe UI,Arial,sans-serif" font-size="18">Python · SQL · Power BI · Tableau · Machine Learning · AI Automation</text>
<rect x="74" y="220" width="94" height="30" rx="15" fill="white" fill-opacity=".06" stroke="white" stroke-opacity=".10"/>
<text x="121" y="240" text-anchor="middle" fill="#DCE7F2" font-family="Inter,Segoe UI,Arial,sans-serif" font-size="11" font-weight="700">DUBLIN, IE</text>
<rect x="180" y="220" width="95" height="30" rx="15" fill="white" fill-opacity=".06" stroke="white" stroke-opacity=".10"/>
<text x="227" y="240" text-anchor="middle" fill="#DCE7F2" font-family="Inter,Segoe UI,Arial,sans-serif" font-size="11" font-weight="700">MSc 2:1</text>
<rect x="287" y="220" width="112" height="30" rx="15" fill="white" fill-opacity=".06" stroke="white" stroke-opacity=".10"/>
<text x="343" y="240" text-anchor="middle" fill="#DCE7F2" font-family="Inter,Segoe UI,Arial,sans-serif" font-size="11" font-weight="700">OPEN TO WORK</text>
</svg>